<svg xmlns="http://www.w3.org/2000/svg" viewBox="0 0 200 230" width="200" height="230">

  <g fill="#FFFFFF" fill-opacity="0.9">
    <path d="M100,15
      C110,15 118,35 122,55
      C130,45 145,35 160,32
      C158,50 150,68 138,80
      C155,80 175,78 190,85
      C180,100 162,110 145,115
      C160,120 178,128 188,145
      C172,155 152,155 138,148
      C145,165 148,180 145,200
      C130,190 118,178 112,165
      C108,178 104,195 100,210
      C96,195 92,178 88,165
      C82,178 70,190 55,200
      C52,180 55,165 62,148
      C48,155 28,155 12,145
      C22,128 40,120 55,115
      C38,110 20,100 10,85
      C25,78 45,80 62,80
      C50,68 42,50 40,32
      C55,35 70,45 78,55
      C82,35 90,15 100,15 Z"/>
  </g>

  <g stroke="#FFFFFF" stroke-opacity="0.55" stroke-width="2.2" stroke-linecap="round" fill="none">
    <path d="M100,208 L100,60"/>
    <path d="M100,150 L58,88"/>
    <path d="M100,150 L142,88"/>
    <path d="M100,115 L48,78"/>
    <path d="M100,115 L152,78"/>
    <path d="M100,178 L38,132"/>
    <path d="M100,178 L162,132"/>
  </g>

  <path d="M100,210 C98,217 96,223 92,229" stroke="#FFFFFF" stroke-opacity="0.9" stroke-width="4" stroke-linecap="round" fill="none"/>

</svg>
